<?xml version="1.0" encoding="utf-8"?>
<!-- Generator: Adobe Illustrator 23.1.0, SVG Export Plug-In . SVG Version: 6.00 Build 0)  -->
<svg version="1.1" xmlns="http://www.w3.org/2000/svg" xmlns:xlink="http://www.w3.org/1999/xlink" x="0px" y="0px"
	 viewBox="0 0 232 222" style="enable-background:new 0 0 232 222;" xml:space="preserve">
<style type="text/css">
	.st0{display:none;}
	.st1{display:inline;}
	.st2{fill:#909090;}
</style>
<g id="Layer_1" class="st0">
	<g class="st1">
		<path class="st2" d="M116.1,215.2c-57.3,0-104.2-46.8-104.2-104C11.9,53.6,58.7,6.5,116.3,6.8C173,7.2,220.2,51.7,220.1,111.1
			C220.1,170.4,172.8,214.8,116.1,215.2z M27.8,110.8c0,48.7,39.5,88.5,88.1,88.5c48.4,0,88.2-38.4,88.5-88.1
			c0.3-48.7-39.8-88.5-88.1-88.6C67.6,22.6,27.8,62.3,27.8,110.8z"/>
		<path class="st2" d="M123.8,93.2c0,18.4,0,36.8,0,55.3c0,5.5-3.1,8.9-7.8,8.9c-4.9,0-8-3.7-8-10c0-16.5,0-32.9,0-49.4
			c0-1.6,0.5-3.3-0.9-5.6c-6.5,6.5-12.7,12.9-18.9,19.2c-1.5,1.5-3,3.1-4.6,4.6c-3.8,3.5-8.4,3.7-11.5,0.4
			c-3.2-3.3-3.2-7.8,0.4-11.5C83.2,94.2,94,83.4,104.9,72.6c11-11,11.4-11,22.5,0c10.5,10.5,20.9,20.9,31.4,31.4
			c4.6,4.6,5,8.9,1.3,12.5c-3.6,3.5-8.2,3.1-12.7-1.4c-7.5-7.5-14.9-15.1-22.4-22.6C124.6,92.8,124.2,93,123.8,93.2z"/>
	</g>
</g>
<g id="Layer_2">
	<g>
		<path class="st2" d="M26.5,121.6c0-22.8,0.5-45.7-0.2-68.5c-0.6-19.3,14.5-30,29.7-29.8c40.9,0.5,81.9,0.2,122.8,0.2
			c17.5,0,28.9,11.3,28.9,28.7c0,29.4,0,58.8,0,88.3c0,16.4-11.6,27.9-28,27.9c-33.1,0-66.2,0.1-99.2-0.1c-3.8,0-6.5,1-9.1,3.7
			c-9.4,9.7-19.1,19.1-28.6,28.8c-3.3,3.3-6.8,5-11.3,3.2c-4.4-1.8-5.1-5.7-5.1-10C26.5,169.8,26.5,145.7,26.5,121.6z M45.1,174.1
			c6.1-6.3,12-12.1,17.5-18.1c3.5-3.8,7.4-5.3,12.6-5.2c34.4,0.2,68.7,0.1,103.1,0.1c8.7,0,11.8-3.2,11.8-11.9c0-28.5,0-57,0-85.5
			c0-9.4-3-12.4-12.5-12.4c-40.4,0-80.8,0-121.2,0C46.7,41,44,43.7,44,53.3c0,38.4,0,76.8,0,115.2C44,170,43.5,171.7,45.1,174.1z"/>
	</g>
</g>
</svg>
