<?xml version="1.0" encoding="utf-8"?>
<!-- Generator: Adobe Illustrator 23.1.0, SVG Export Plug-In . SVG Version: 6.00 Build 0)  -->
<svg version="1.1" id="Layer_1" xmlns="http://www.w3.org/2000/svg" xmlns:xlink="http://www.w3.org/1999/xlink" x="0px" y="0px"
	 viewBox="0 0 138 147" style="enable-background:new 0 0 138 147;" xml:space="preserve">
<style type="text/css">
	.st0{fill:#5B5B5B;}
</style>
<g>
	<path class="st0" d="M69.1,83.8C80,72.9,90.4,62.4,100.9,51.9c1.2-1.2,2.3-2.4,3.6-3.4c2.9-2.2,6-2.1,8.6,0.4
		c2.8,2.6,2.9,5.8,0.5,8.9c-0.5,0.7-1.1,1.3-1.7,1.8C99.7,71.9,87.5,84.2,75.2,96.4c-4.9,4.9-7.6,4.9-12.6-0.1
		C50.3,84,38.1,71.8,25.9,59.5c-3.8-3.8-4.2-7.5-1.4-10.4c2.9-3,7-2.6,10.9,1.2c9.9,9.9,19.8,19.8,29.7,29.7
		C66.2,81.1,67.4,82.2,69.1,83.8z"/>
</g>
</svg>
