<?xml version="1.0" encoding="utf-8"?>
<!-- Generator: Adobe Illustrator 23.1.0, SVG Export Plug-In . SVG Version: 6.00 Build 0)  -->
<svg version="1.1" id="Layer_1" xmlns="http://www.w3.org/2000/svg" xmlns:xlink="http://www.w3.org/1999/xlink" x="0px" y="0px"
	 viewBox="0 0 170 165" style="enable-background:new 0 0 170 165;" xml:space="preserve">
<style type="text/css">
	.st0{fill:#525252;}
</style>
<g>
	<path class="st0" d="M85.1,27.6c6.9-7.8,15-12.7,24.6-14.9c18-4.1,38.1,4.8,47.3,21.2c9.8,17.6,8.1,39.4-5.1,53.3
		c-20.3,21.4-41,42.3-61.7,63.3c-3.8,3.9-7.2,3.6-11.3-0.6c-19.7-20.1-39.4-40.2-59-60.4C2.5,71.5,2.1,43.4,19,25.7
		c17.1-18,44.5-18.6,62.7-1.3C82.7,25.3,83.7,26.2,85.1,27.6z M84.4,137c1-0.7,1.6-1.1,2-1.5c18.5-18.9,37.2-37.7,55.4-56.9
		c11.8-12.5,10.8-32.4-1.4-44.5c-12-11.9-30.8-12-43.1,0c-2.2,2.2-4.3,4.5-6.6,6.7c-4.4,4.3-7.4,4.3-11.7,0.1
		c-2.3-2.3-4.5-4.8-6.9-7c-7.1-6.6-15.5-9.8-25-8.4c-12.8,2-21.7,9.3-25.8,22c-4.1,12.8-0.6,23.9,8.5,33.3
		c13.5,13.9,27.1,27.8,40.7,41.7C75.2,127.2,79.8,132.2,84.4,137z"/>
</g>
</svg>
