<svg xmlns="http://www.w3.org/2000/svg" xml:space="preserve" x="0px" y="0px" viewBox="0 0 350.4 160.8"><path d="m18.6 70.7 1.5-.2 1.5-.3 1.4-.5 1.4-.5 1.3-.6L27 68l1.2-.7 1.1-.7 1-.6 1.3-.9.4.2v5.5h.1l.5-.1.6-.1.7-.1.7-.1.8-.1.8-.1.8-.1.8-.1.8-.1.7-.1.7-.1.7-.1.8-.1.8-.1.8-.1.8-.1.7-.1.7-.1.6-.1.5-.1.4-.1h.2v-.8h-3.6l-.6.1-.6-.2h-.1l-.5-.2h-.1l-.4-.3-.1-.1-.4-.4-.1-.1-.3-.5v-.1l-.2-.5v-.1l-.2-.7-.2-.9-.1-1V0l-.5.1-.5.1-.6.1-.7.2-.7.2-.8.2-.8.1-.7.2-.7.2-.7.1-.8.2-.8.2-.7.1-.8.1-.8.2-.9.2-.8.1-.7.1-.7.1-.6.1-.4.1h-.3v1l2 .2 1 .1h.1l.9.2h.1l.8.3.1.1.6.4.1.1.5.5.1.1.4.7v.1l.3.8v.1l.2.9.1 1 .1 1.2V28.6l-.3.2-.5-.2-.1-.2-.3-.1-.5-.2-.7-.2-.8-.2-.9-.2-1-.2-1.1-.2-1.3-.1-1.4-.1h-1.5l-1.8.1-1.7.2-1.6.3-1.6.4-1.5.5-1.4.6-1.4.8-1.4 1L7.7 32l-1.3 1.3-1.1 1.3L4.2 36l-.9 1.5-.8 1.6-.7 1.7-.6 1.8-.5 1.8-.3 1.9-.2 2-.1 2 .1 2 .2 2 .3 1.9.5 1.8.6 1.7.7 1.5.8 1.5.7 1.4 1 1.2 1.1 1.1 1.1 1 1.2.9 1.3.7 1.4.6 1.4.5 1.5.3 1.5.2 1.6.1h1.5m3.2-4.1H21l-.8-.1h-.1l-.8-.2-.8-.2-.9-.3-.8-.3-.8-.4-1-.5-.9-.6-.8-.6-.8-.7-.7-.8-.8-1.2-.6-1-.6-1.1-.5-1.2-.5-1.3-.4-1.4-.4-1.8-.2-1.6-.2-1.8v-1.9l.1-2.1.2-2 .1-2.1.4-1.8v-.1l.6-1.6.6-1.5.7-1.4v-.1l.8-1.2.9-1.1 1-1 1.1-.8 1.2-.7h.1l1.3-.5h.1l1.4-.4 1.5-.2h.3l1.6-.1 1.4.1 1.3.1 1.2.2 1.1.3.9.4.9.4.7.4.6.4.5.4.5.4.3.3.2.2.1.1.1.1.1.2v.1l-.1 30.4-.5.4.1.2-.4.3-.6.4-.7.3-.7.3-.8.3-1 .4-1 .2-1.1.2-1.3.1-1.6.1m51.9 3.3H51.3v-1l2.9-.3.8-.1.7-.2h.1l.6-.2h.1l.5-.3.1-.1.4-.3.1-.1.3-.4.1-.1.2-.6v-.1l.1-.7.1-.8V37.7l-.1-1.2-.1-1v-.1l-.2-.9-.3-.8v-.1l-.4-.7-.1-.1-.5-.5-.1-.1-.6-.3h-.1l-.8-.3H55l-.9-.2H54l-1.1-.1-2-.2v-.9h.3l.5-.1.6-.1.7-.1.7-.1.8-.1.8-.1.8-.2.8-.1.8-.2.8-.2.7-.1.7-.2.7-.2.7-.2.8-.2.7-.2.7-.2.7-.2.6-.1.5-.1.7-.2v36.3l.1.9.1.8v.1l.2.7v.1l.2.6v.1l.3.5.1.1.4.4.1.1.5.3h.1l.6.2.7.2h.1l.9.1 3.4.3v1l-.1.1M61.3 14.5l-.8-.2-.7-.3-.7-.4-.6-.5-.5-.6-.4-.6-.3-.7-.2-.8-.1-.8.1-.8.2-.8.3-.7.4-.6.6-.7.6-.5.7-.4.7-.3.8-.2.8-.1.8.1.8.2.7.3.7.4.5.5.5.6.4.6.3.7.2.8.1.8v.1l-.1.8-.2.8-.3.7-.4.6-.5.6-.6.5-.7.4-.7.3-.8.2-.8.1-.8-.1m39.4 81.4-3.8-.3-.9-.2-.7-.2h-.1l-.6-.2h-.1l-.5-.3-.1-.1-.4-.4-.1-.1-.3-.5v-.1l-.2-.6v-.1l-.2-.7V92l-.1-.8-.1-.9V68.2l.3-.2.5.3.2.1.3.2.4.2.6.3.7.3.8.3 1 .3 1.1.3 1.2.2 1.4.2 1.5.1h1.6l1.8-.1 1.7-.2 1.7-.3 1.6-.5 1.5-.6 1.5-.7 1.4-.9 1.3-1 1.2-1.1 1.1-1.2 1-1.3 1-1.4.9-1.5.7-1.6.7-1.7.6-1.7.4-1.8.3-1.9.2-2 .1-2-.1-2-.2-2-.3-1.9-.5-1.8-.6-1.7-.7-1.5-.8-1.5-.9-1.3-1-1.2-1.1-1.1-1.2-1-1.2-.9-1.3-.7-1.4-.6-1.4-.5-1.5-.3-1.5-.2-1.6-.1-1.6.1-1.5.2-1.5.3-1.4.5-1.4.5-1.3.6-1.3.6-1.2.7-1.3.6-1 .7-1.3.9-.4-.2.1-5.5-.5.1-.5.1-.6.1-.7.2-.7.2-.7.2-.8.2-.7.2-.7.2-.7.2-.7.1-.8.2h-.8l-.8.1-.8.2-.9.2-.8.1-.7.1-.7.1-.5.2h-.8v1l2 .2 1 .1.8.2h.1l.7.2h.1l.6.3.1.1.5.4.1.1.4.5v.1l.3.6v.1l.2.7v.1l.2.9.1 1V91.5l-.1.8-.1.7-.2.6-.1.1-.2.5-.1.1-.4.4-.1.1-.4.1h-.1l-.6.2h-.1l-.7.2-.9.1-2.9.3v1H100.6v-.8m3.3-26.7-1.5-.1h-.1l-1.4-.2-1.3-.3h-.1l-1.2-.4-1.1-.4h-.1l-1-.5-.8-.6-.6-.7-.7-.6-.5-.6-.5-.7V64l-.3-.6-.3-.6V34.3l.2-.2h.1l.1-.1.2-.2.4-.3.5-.3.6-.3.7-.3.8-.3 1-.3 1.1-.3 1.2-.2 1.3-.1 1.4-.1 1.4.1h.1l1.3.2h.1l1.2.4h.1l1.2.5 1.1.6 1.1.8 1 .9.9 1 .9 1.1.8 1.2.7 1.3.6 1.4.5 1.5.5 1.6.3 1.6.3 1.7.2 1.7.1 1.8v2.1l-.1 2-.2 1.9-.3 1.7-.4 1.6-.5 1.5-.6 1.3v.1l-.7 1.2-.8 1-.9.9h-.1l-1 .8-1.1.6h-.1l-1.2.5h-.1l-1.3.4-1.4.2h-.1l-1.6.7M145.1 70.3l-1.2-.2-1.1-.4-1.1-.4-.9-.6-.8-.7-.7-.8-.5-.6-.3-.5-.3-.6-.3-.6-.2-.6-.1-.7-.2-.8-.1-.9v-1l-.1-1.1v-7.4l.1-1.2V45l.1-1.2v-3.7l.1-1.1v-3.8l.1-.8v-2.3h-5.4l.5-.4.5-.5.6-.5.6-.6.7-.6.6-.7.7-.6.7-.7.6-.6.6-.7.6-.5.6-.6.5-.6h.1l.5-.6.6-.7.6-.6.6-.7.6-.6.5-.6.5-.6.5-.5.5-.5.2-.2v.3l-.2 9.6h14.2V32H145V33.7l-.1.6v3.4l-.1 1v4.5l-.1 1.1v4.3l-.1 1V56.7l.1 1.1v1.1l.1 1 .1.9.2.8v.1l.2.7.4.9h.1l.5.8.1.1.6.6.7.5.1.1.8.3v.1l.9.2 1 .2h2.1l.9-.2.9-.3.9-.3v-.1l.8-.3.7-.4v-.1l.6-.4h.1l.5-.4.5-.3.2-.2.5 1-.5.4-.8.7-.9.7-1 .7-1.1.8-1.1.6-1.2.6-1.1.6-1.3.4-1.3.4-1.2.2-1.3.1-1.3-.1M166.5 97.9l-.7-.2-.7-.3-.6-.4-.5-.5-.4-.6-.3-.6-.2-.6-.1-.7.1-.6.1-.5.3-.5.3-.4.4-.3.6-.3.6-.2.7-.2.8-.1.9-.1h1l1-.1h1l.8-.1.1-.1.7-.1h.1l.7-.3.6-.3.1-.1.6-.4.6-.5.5-.6v-.1l.5-.7h.1l.5-.8.5-1 .5-1.1h.1l.5-1.2.7-1.4.5-1.2.5-1.1.4-1.2.5-1.1.4-1 .4-1 .4-.9.4-.9.3-.8.2-.7.3-.5.1-.5.2-.4.1-.2.1-.2-.1-.3-.1-.2-.2-.3-.2-.5-.2-.5-.2-.7-.4-.7-.3-.9-.4-.9-.4-.9-.4-1v-.1l-.4-1-.5-1.1-.4-1.1-.5-1.1-.5-1.1-.4-1.1-.5-1.1-.5-1.1-.4-1.1-.4-1-.4-.9-.4-.9-.8-1.9-.7-1.6V47l-.7-1.6-.6-1.5-.7-1.5-.7-1.5-.6-1.5-.8-1.6-.7-1.7-.8-1.8-.3-.6-.3-.7-.3-.6v-.1l-.3-.6h-.1l-.4-.6V31l-.4-.5-.1-.1-.5-.4v-.1l-.6-.4-.1-.1-.7-.2-.1-.1-.7-.1-1.5-.2v-1h1.8l.7.1h4.2l.9.1h3.3l.8-.1h4.5l.8-.1h2.5v1l-1.6.1h-1.1l-.8.2h-.1l-.6.2h-.1l-.6.2-.1.1-.4.3-.1.2-.2.4-.1.1v1.1l.1.6.2.6v.1l.2.7h.1l.3.8.3.9v.1l.4.9.4 1.1.4 1 .5 1.1.5 1.2.5 1.1.4 1.1.5 1.1.4 1.1.4.9.4.9.4.9.4 1 .4 1 .4 1 .4 1 .5.9.4 1 .3.9.4.8.3.8.4.8.2.6.3.5.2.5.1.3.1.2v.1l.3.5h.4l.2-.5h.1v-.2l.1-.2.1-.3.2-.4.3-.6.2-.6.3-.8.4-.9.4-1 .5-1.1.5-1.2.6-1.5.6-1.5.7-1.7.8-1.8.7-1.9.8-1.8.6-1.7.6-1.6.4-1.4.4-1.2v-.1l.3-1.1.2-1h.1l.1-.8v-1.6h-.1V31l-.1-.1-.1-.3-.1-.1-.2-.3-.1-.1-.3-.2h-.1l-.4-.3-.6-.2-.7-.2-.8-.1-1.6-.3v-1h1.9l.8.1H198.5l.8.1h1.4l.7-.1h3.2l.7-.1H207.2v1l-1.2.3H205.7l-.3.1-.1.1-.3.1-.5.2-.5.2v.1l-.5.3v.1l-.6.4-.5.6-.5.7-.5.8-.3.5-.2.5-.3.6-.3.6-.3.7-.4.8-.4.9-.4 1-.5 1.1-.5 1.3-.6 1.3-.6 1.4-.7 1.6-.7 1.7-.8 1.9-.7 1.7-.8 1.9-.8 1.9-.8 2-.8 2-.8 1.9-.8 1.8-.7 1.8-.7 1.7v.1l-.1.2-.1.3-.2.4-.2.6-.3.7-.3.8-.3.8-.4.9-.3 1-.5 1-.4 1-.4 1.1-.5 1.1-.4 1.1-.4 1.1-.5 1.1-.4 1.1-.4 1.1-.4 1-.4.9-.4.9-.3.8-.3.8-.3.6-.3.5-.7 1.7-.8 1.5-.8 1.4-.9 1.3-.9 1.1-.9 1.1-.9.9-1 .8-.9.6-1 .5-1 .4-.9.2-1 .1-.8-.1" class="st0"/><path d="M254 96.9h-22.3v-1l3.8-.3.9-.1.7-.2h.1l.6-.2h.1l.5-.3.1-.1.4-.4.1-.1.3-.5v-.1l.2-.6v-.1l.2-.7v-.1l.1-.8.1-.9V65l-.3-.2-.5.3-.1.1-.1.1-.3.2-.4.3-.5.3-.6.4-.7.5-.7.4-.7.6-.9.5-.9.4-1 .4-1 .4-1.1.4-1.1.3-1.2.2-1.2.2h-1.2l-1.6-.1-1.5-.2-1.4-.3-1.4-.5-1.3-.6-1.3-.7-1.2-.9-1.1-1-1-1.1-.9-1.2-.9-1.3-.8-1.4-.7-1.6-.6-1.7-.4-1.8-.3-1.9-.2-2-.1-2 .1-2.1.2-2 .3-1.9.5-1.9.6-1.8.7-1.7.8-1.6.9-1.5 1-1.4 1.1-1.3 1.1-1.2 1.3-1.1 1.3-1 1.4-.8 1.5-.7 1.5-.5 1.6-.5 1.7-.3 1.7-.2 1.8-.1h1.4l1.3.1 1.2.1 1.1.2 1 .2.9.2.8.2.7.2.6.2.5.2.3.1.2.1.3.1.3-.2.2-.1.3-.2.4-.2.5-.2.5-.3.5-.3.5-.3.5-.3.5-.3.5-.3.6-.3.5-.2.5-.2.5-.2.3-.1v66.4l.1.8v.1l.2.7V93l.2.6.1.1.3.5.1.1.4.4.1.1.5.3h.1l.6.2h.1l.7.2.9.1 2.9.3v1h-.5m-24-30.2-1.3-.1h-.1l-1.3-.2-1.2-.3h-.1l-1.2-.5-1.1-.6h-.1l-1-.7-1-.8-.9-1-.8-1.1-.8-1.2-.7-1.4-.6-1.5-.5-1.6-.4-1.7-.3-1.9-.2-2-.1-2.1v-2l.2-1.9.2-1.8.3-1.7.4-1.6.5-1.5.6-1.4.7-1.2.8-1.1.9-1 1-.9 1-.7h.1l1.1-.6 1.2-.5h.1l1.3-.3 1.4-.2h.1l1.4-.1 1.4.1 1.3.2 1.2.2 1.1.3 1 .4.8.4.7.4.6.4.5.4.4.4.3.3.2.2.1.2v.1l.1.2v30.7l-.2.1-.1.1-.3.2-.4.3-.5.3-.6.3-.7.3-.8.3-1 .3-1.1.3-1.2.2-1.3.1-1.1-.5" class="st0" style="fill-rule:evenodd"/><path d="m276.4 70.7 1.5-.2 1.5-.3 1.4-.4 1.4-.5 1.3-.5 1.3-.6 1.2-.6 1.1-.7 1-.6.9-.6.8-.5.7-.5.9-.8.4.2v6.6h.2l.4-.1h.6l.7-.1.7-.1.8-.1h.1l.8-.1.7-.1.8-.1.7-.1H299.1l.7-.1.7-.1.8-.1h.8l.8-.1.7-.1.8-.1.6-.1.6-.1.6-.1h.4l.2-.1v-.8h-.1l-.5.1h-2.4l-.8-.1-.1-.1-.7-.2h-.1l-.6-.2-.1-.1-.5-.4h-.1l-.3-.5-.1-.1-.3-.5-.1-.1-.2-.6v-.1l-.1-.7h-.1l-.1-.9v-1l-.1-1V58l-.1-.9v-2.6l-.1-.8V36l.1-1.1V27l-.5.1-.5.2-.6.1-.6.2h-.1l-.6.1-.8.2-.8.2-.7.1-.7.2-.7.2-.7.1-.8.1v.1l-.8.1-.8.2-.8.1-.9.2-.7.1-.8.1-.6.1-.6.2h-.5l-.3.1v.9l2 .1 1.1.1.1.1.8.2h.1l.7.3.1.1.6.4h.1l.5.5.1.1.4.7v.1l.3.7v.1l.2.9.1 1.1.1 1.2v1.8l.1 1.6v21.7l-1.1.7-1 .5-.9.5h-.1l-1 .5-1.1.4v.1l-1.2.3-1.3.3-1.4.2H280l-1.1-.2-1-.2-1-.4-.9-.5h-.1l-.7-.5-.1-.1-.7-.6v-.1l-.6-.7-.1-.1-.5-.9-.4-1-.4-1.1v-.1l-.2-1.2-.1-1.3v-2l-.1-1V38.6l.1-1.2v-7.6l.1-.8v-2l-.5.1-.5.2-.6.1-.7.2-.7.1-.7.2-.8.2-.7.1-.7.2-.7.2-.7.1-.8.1v.1l-.8.1-.8.2-.8.1h-.1l-.8.2-.7.1-.8.1-.7.1-.5.2h-.5l-.3.1v.9l2 .1 1.1.1v.1l.9.2.8.3.1.1.6.4h.1l.5.5.1.1.3.7.1.1.2.7.1.1.2.9.1 1.1.1 1.2V54l-.1.9v3.4l.1 1.3v1.1l.2 1 .1.9.2.9.3.8.3.7.4.8.5.7.6.8.6.8.8.6.9.7.9.4 1 .4 1.1.3 1.2.2 1.2.1 1.5-.1M332.9 70.7l1.7-.2 1.7-.3 1.6-.5 1.6-.6 1.5-.7 1.4-.7 1.4-.8 1.2-.9 1.3-.9 1.2-.9 1.1-.9 1.1-.9.7-.6-.6-.9-.5.4-.7.5-.8.5-.9.6-1 .6-1 .5-1.1.5-1.2.5-1.3.4-1.4.3-1.4.2-1.5.1-1.5-.1-1.5-.2-1.5-.3h-.1l-1.4-.5-1.3-.6h-.1l-1.3-.7-1.2-.8-1.1-1-1-1.1-1-1.2-.8-1.3-.8-1.4-.7-1.5-.6-1.6-.4-1.8-.3-1.9-.2-2-.1-2.1v-1.3h29.8l-.1-.7-.2-1.2-.2-1.2-.4-1.5-.3-1.2-.4-1.1-.5-1.1-.5-1.1-.6-1-.6-1-.7-.9-.8-.9-.9-.8-.9-.8-1-.7-1.1-.6-1.2-.6-1.3-.4-1.4-.4-1.5-.2-1.6-.2-1.7-.1h-1.2l-1.3.2-1.2.2-1.2.4-1.2.4-1.2.5-1.1.6-1.1.7-1.1.8-1.1.9-1 1-.9 1.1-.9 1.2-.8 1.3-.7 1.4-.7 1.5-.6 1.6-.5 1.7-.4 1.8-.3 1.9-.2 2-.1 2.1.1 1.9.2 1.8.3 1.8.5 1.6.5 1.5.7 1.5.8 1.4.9 1.3.9 1.2 1 1.1 1.1 1 1.1.9 1.2.8 1.2.7 1.3.6 1.3.5 1.3.4 1.3.3 1.3.2 1.3.1 1.4-.1M320 42.3v-1l.1-.6.1-.6.1-.7.2-.7.2-.7.3-1 .3-.8.3-.8.4-.8.5-.8.5-.8.6-.7.6-.7.7-.6.7-.6h.1l.8-.5.9-.4h.1l1-.3h.1l1-.2h.1l1.1-.1 1.2.1h.1l1.1.2h.1l1 .3 1 .4h.1l.9.5.8.6.7.7.7.7.6.8.5.8.4.9.4.9.3 1 .2 1 .2 1 .1 1 .1 1v1.4H320M138.9 138.6c0 2-.4 3.8-1.2 5.4-.8 1.6-1.9 2.9-3.3 3.8-1.4.9-3 1.4-4.8 1.4-1.4 0-2.5-.1-3.3-.4-.8-.3-1.3-.5-1.6-.7v9.6c0 .7.2 1.2.4 1.5.2.3.7.5 1.4.5l1.9.2v.9h-10.6v-.8l1.5-.2c.7-.1 1.1-.3 1.3-.5.2-.3.3-.8.3-1.5V134.6c0-.9-.2-1.6-.5-2s-.8-.6-1.7-.7l-1.1-.1v-.8c.4-.1.9-.2 1.6-.3.6-.1 1.4-.3 2.3-.5.4-.1.9-.2 1.6-.4.7-.2 1.2-.3 1.6-.4v2.5c2.3-1.7 4.4-2.5 6.4-2.5 1.4 0 2.7.4 3.9 1.1 1.2.8 2.2 1.8 2.9 3.2.6 1.5 1 3.1 1 4.9zm-3.8 1.7c0-1.6-.3-3.1-.8-4.4-.5-1.3-1.3-2.3-2.2-3.1-1-.8-2-1.1-3.2-1.1-1.2 0-2.1.2-2.8.5-.7.3-1.2.6-1.4.8v12.4c.2.6.8 1.2 1.7 1.8.9.6 2 .9 3.2.9 3.7 0 5.5-2.6 5.5-7.8zm30.7 6.1c-.5.5-1.2 1.1-2.2 1.8-1 .7-1.9 1.1-2.8 1.1-.8 0-1.5-.3-1.9-.9-.5-.6-.8-1.1-.9-1.5-.5.4-1.2.9-2.3 1.6-1 .6-2.1.9-3.2.9-1.2 0-2.3-.5-3.3-1.4-1-.9-1.5-2-1.5-3.3 0-1.3.6-2.5 1.7-3.4 1.1-1 2.4-1.7 3.9-2.1.9-.3 1.8-.5 2.7-.6.9-.1 1.5-.2 1.9-.2 0-.4 0-1 .1-1.8v-2.2c0-1.2-.3-2.1-.8-2.7-.6-.6-1.3-1-2.1-1s-1.3.2-1.7.5c-.4.3-.7.8-1 1.3-.4.8-.8 1.3-1.1 1.6-.4.3-.8.5-1.4.5-.5 0-.8-.2-1-.5-.2-.3-.3-.7-.3-1 0-.4.1-.7.4-1 .3-.3.7-.7 1.4-1 1.5-.9 3.4-1.4 5.5-1.4s3.5.3 4.4 1c.9.7 1.4 1.7 1.4 3 0 .7 0 1.9-.1 3.9-.1 1.9-.1 4.2-.1 6.9 0 1.6.6 2.4 1.8 2.4.4 0 .8-.1 1.3-.3.5-.2.8-.4 1-.6l.2.4zm-8.1-7.1c-.3 0-.8.1-1.5.2s-1.4.2-2.1.5c-.8.2-1.6.6-2.2 1.2-.6.5-.9 1.2-.9 1.9 0 .9.2 1.6.6 2.2.4.6.9 1 1.5 1.3.6.3 1.3.4 1.9.4 1 0 1.9-.4 2.7-1.1v-6.6zm29.2-7.9c0 .6-.3 1.3-.9 2-.6.8-1.2 1.1-1.8 1.1-.2 0-.4-.1-.6-.2s-.3-.3-.4-.6c-.1-.3-.3-.5-.4-.6-.3-.3-.6-.4-1-.4-.5 0-1 .4-1.5 1.1-.5.8-1 1.9-1.5 3.6v8.2c0 .6.1 1 .3 1.2.2.3.5.4 1 .6.5.1 1.1.2 1.8.3l1.7.2v.9c-.8 0-2 0-3.4-.1h-6c-1.1 0-1.9 0-2.4.1v-.8l1.5-.2c.7-.1 1.1-.3 1.3-.5.2-.3.3-.8.3-1.5v-11.4c0-.9-.2-1.6-.5-2-.3-.4-.9-.6-1.7-.7l-1.1-.1v-.8c.4-.1.9-.2 1.6-.3.6-.1 1.4-.2 2.3-.5.4-.1.9-.2 1.6-.4.7-.2 1.2-.3 1.6-.4v5.7c.2-.6.5-1.4 1-2.2.5-.9 1-1.6 1.6-2.2.9-.9 1.9-1.3 3.1-1.3.7 0 1.2.2 1.7.6.6.7.8 1.1.8 1.6zm18.5 17.5c-.6 0-1.5 0-2.6-.1h-5.5c-1.1 0-1.9 0-2.4.1v-.9l1.5-.2c.7-.1 1.1-.3 1.3-.5.2-.3.3-.8.3-1.5v-11.4c0-1-.2-1.6-.5-2-.3-.4-.9-.6-1.7-.7l-1.1-.1v-.8c.4-.1.9-.2 1.6-.3.6-.1 1.4-.2 2.3-.4.4-.1.9-.2 1.6-.4.7-.2 1.2-.3 1.6-.4v16.4c0 .7.2 1.2.4 1.5.2.3.7.5 1.4.5l1.7.2v1zm-3-26.9c0 .7-.2 1.3-.7 1.7-.5.5-1.1.7-1.7.7-.7 0-1.2-.2-1.7-.7-.5-.5-.7-1.1-.7-1.7 0-.7.2-1.2.7-1.7s1.1-.7 1.7-.7c.7 0 1.2.2 1.7.7.5.4.7 1 .7 1.7zm24.2 21.2c0 1.9-.8 3.4-2.3 4.4-1.5 1-3.3 1.6-5.2 1.6-.8 0-1.6-.1-2.6-.3-1-.2-1.5-.3-1.8-.3h-1.2c-.2 0-.3.1-.4.1 0 0-.1-1-.2-3 0-.4-.1-.9-.1-1.5s-.1-1-.1-1.2v-.5h.9l.1.9c.2 1.5.8 2.6 1.7 3.4.9.8 2.2 1.2 3.8 1.2 1.2 0 2.2-.3 2.9-.9.7-.6 1.1-1.4 1.1-2.4 0-.8-.3-1.5-.8-2s-1.8-1.1-3.8-1.9c-.8-.3-1.5-.7-2.1-1-.6-.3-1.2-.7-1.7-1.1-.5-.4-.9-1-1.2-1.6-.3-.6-.4-1.4-.4-2.2 0-1.1.3-2.1 1-2.9.6-.8 1.5-1.5 2.5-1.9 1.1-.4 2.2-.6 3.5-.6.9 0 1.8.1 2.7.2.9.1 1.4.2 1.6.2.2 0 .5 0 .7-.1.2 0 .4-.1.5-.1v1c0 .8 0 1.8.1 2.7 0 1 .1 1.7.1 2.2h-.9l-.1-.6c-.2-1.5-.7-2.6-1.4-3.3-.7-.7-1.8-1-3.1-1s-2.2.2-2.9.7c-.6.5-1 1.1-1 2 0 .6.1 1.2.4 1.7.3.5.8.9 1.4 1.3.6.4 1.6.8 2.8 1.4 1.8.8 2.9 1.4 3.5 1.6.5.3 1 .7 1.5 1.3.2.7.5 1.5.5 2.5z" class="st0"/></svg>