<?xml version="1.0" encoding="utf-8"?>
<!-- Generator: Adobe Illustrator 23.1.0, SVG Export Plug-In . SVG Version: 6.00 Build 0)  -->
<svg version="1.1" id="Layer_1" xmlns="http://www.w3.org/2000/svg" xmlns:xlink="http://www.w3.org/1999/xlink" x="0px" y="0px"
	 viewBox="0 0 576 613" style="enable-background:new 0 0 576 613;" xml:space="preserve">
<style type="text/css">
	.st0{fill:none;}
	.st1{fill:#FFFFFF;}
	.st2{fill:none;stroke:#FFFFFF;stroke-miterlimit:10;}
</style>
<g>
	<path class="st0" d="M188.7,228.6C188.7,228.6,188.7,228.6,188.7,228.6"/>
	<path class="st0" d="M218.6,205.6L218.6,205.6"/>
	<path class="st0" d="M221.8,186.4c-0.1-21.6-0.2-43.3-0.3-64.9c-0.1-15.5-0.1-30.9-0.4-46.4c-0.1-5.8-0.8-11.6-1.6-17.3
		c-0.2-1.3-0.5-2.5-0.9-3.7v0c0.4,1.1,0.7,2.3,0.9,3.6c0.8,5.7,1.5,11.6,1.6,17.4c0.3,15.5,0.3,30.9,0.4,46.4
		C221.5,143.2,221.6,164.8,221.8,186.4c0,3.5-0.8,6.3-3.2,8.2v0C221,192.7,221.8,189.9,221.8,186.4z"/>
	<path d="M221.7,186.5c-0.1-21.6-0.2-43.3-0.3-64.9c-0.1-15.5-0.1-30.9-0.4-46.4c-0.1-5.8-0.8-11.6-1.6-17.4
		c-0.2-1.3-0.5-2.5-0.9-3.6v140.5C221,192.7,221.8,189.9,221.7,186.5z"/>
	<path class="st1" d="M209.4,238.2c2,0.9,4.1,2.4,5.2,4.3"/>
	<path class="st1" d="M188.7,228.6"/>
	<path class="st1" d="M218.6,36.9L218.6,36.9"/>
	<path class="st2" d="M218.6,194.6c-0.1,0.1-0.1,0.1-0.2,0.2C218.5,194.7,218.5,194.7,218.6,194.6L218.6,194.6z"/>
	<path class="st2" d="M207.5,44.8c-3.9-0.8-7.8-1.6-11.7-2.7c-1.1-0.3-2-1.5-3.1-2.3c0,0,0,0,0,0c1,0.8,1.9,2,3.1,2.3
		C199.6,43.2,203.5,44,207.5,44.8c5.8,1.2,9.4,4.4,11.1,9.3v0C216.9,49.3,213.2,46,207.5,44.8z"/>
	<path class="st2" d="M202.8,205.6c-0.2-0.6-0.4-1.2-0.6-1.8c0,0,0,0,0,0C202.4,204.4,202.6,205,202.8,205.6c5.2,0,10.5,0,15.8,0v0
		C213.3,205.6,208.1,205.6,202.8,205.6z"/>
	<path class="st2" d="M74.7,48.7c21.5-4.9,41.5-0.8,59.8,8.9c19.9,10.5,32.4,27.5,36.7,50c6.6,34.8-13,69.8-46.9,81.8
		c-14.4,5.1-29.7,5.1-44.9,3.3c-3.5-0.4-3.2-2.8-3.2-5.1c-0.2-18.1-0.2-36.3-0.5-54.4c-0.4-26.8-0.9-53.5-1.3-80.3
		C74.5,51.5,74.7,50,74.7,48.7z M31,42.9c5.6,2.2,10.6,3.8,15.4,6c6.4,2.9,6.3,9.2,6.4,14.6c0.2,39.1,0.1,78.2,0.1,117.3
		c0,9.9-5.5,16-21.9,17.2C31,146.4,31,95.1,31,42.9z"/>
	<path d="M195.8,42.1c-1.1-0.3-2-1.5-3.1-2.3c0,0,0,0,0,0c0,0,0,0,0,0c1.2-0.7,2.3-2,3.6-2.1c7.4-0.3,14.8-0.6,22.3-0.8V8.8
		c-5.2,0-10.4,0-15.5,0C150.1,8.7,97.1,8.4,44.2,8.1c-12.5,0-25-0.1-37.5,0c-1.3,0-2.5,1-3.8,1.5c1,1.4,1.8,2.8,3,4
		c0.6,0.6,1.8,0.7,2.8,1c10.1,2.9,18.2,7.9,21.4,18.8c0.4,1.2,3,2.5,4.6,2.5c12.8-0.1,25.7,0.3,38.4-0.9c22.8-2,45.1,0.1,66.4,7.5
		c32.7,11.4,56.4,37.9,58.5,76.3c0.2,3.5,0.8,7,0.4,10.4c-2.2,18-8.8,34.4-19.8,48.8c-3,3.9-6.8,7.4-10.8,10.2
		c-16.9,11.9-36.2,15.3-56.3,15.5c-24.6,0.2-49.3,0.2-73.9,0.3c-6.4,0-6.4,0.1-6.4,6.6c0,5.6,0,11.2,0,16.8h187.4v-21.9
		c-5.3,0-10.5,0-15.8,0c-0.2-0.6-0.4-1.2-0.6-1.8c0,0,0,0,0,0c0,0,0,0,0,0c1.2-1,2.2-2.3,3.6-3c3.1-1.6,6.2-3.4,9.5-4.4
		c1.2-0.4,2.3-0.9,3.1-1.6c0.1-0.1,0.1-0.1,0.2-0.2V54.2"/>
	<path d="M76.2,187.7c0,2.3-0.3,4.7,3.2,5.1c15.2,1.8,30.5,1.8,44.9-3.3c33.9-12.1,53.6-47,46.9-81.8c-4.3-22.6-16.8-39.5-36.7-50
		c-18.4-9.8-38.4-13.9-59.8-8.9c-0.1,1.3-0.3,2.8-0.3,4.3c0.4,26.8,0.9,53.5,1.3,80.3C76,151.4,76,169.5,76.2,187.7z"/>
	<path d="M52.9,180.9c0-39.1,0.1-78.2-0.1-117.3c0-5.4,0-11.8-6.4-14.6c-4.8-2.2-9.8-3.8-15.4-6c0,52.2,0,103.5,0,155.2
		C47.3,196.9,52.9,190.7,52.9,180.9z"/>
	<path class="st1" d="M218.6,205.6v-10.9c-0.1,0.1-0.1,0.1-0.2,0.2c-0.8,0.6-1.9,1.2-3.1,1.6c-3.3,1.1-6.4,2.8-9.5,4.4
		c-1.3,0.7-2.4,2-3.6,3c0.2,0.6,0.4,1.2,0.6,1.8C208.1,205.6,213.3,205.6,218.6,205.6z"/>
	<path class="st1" d="M215.3,196.4c1.3-0.4,2.3-0.9,3.1-1.6C217.5,195.4,216.5,195.9,215.3,196.4c-3.3,1.1-6.4,2.8-9.5,4.4
		c-1.3,0.7-2.4,2-3.6,3c0,0,0,0,0,0c1.2-1,2.2-2.3,3.6-3C208.8,199.1,211.9,197.4,215.3,196.4z"/>
	<path class="st1" d="M192.8,39.8C192.8,39.8,192.8,39.8,192.8,39.8c1.2-0.7,2.3-2,3.6-2.1c7.4-0.3,14.8-0.6,22.3-0.8v0
		c-7.4,0.2-14.8,0.5-22.3,0.8C195.1,37.8,193.9,39.1,192.8,39.8z"/>
</g>
<rect x="186.5" y="30.9" width="48" height="28.6"/>
<rect x="192.7" y="192.3" width="53" height="53"/>
<rect x="209.4" y="8.8" width="55" height="247.4"/>
</svg>
