<?xml version="1.0" encoding="utf-8"?>
<!-- Generator: Adobe Illustrator 23.1.0, SVG Export Plug-In . SVG Version: 6.00 Build 0)  -->
<svg version="1.1" id="Layer_1" xmlns="http://www.w3.org/2000/svg" xmlns:xlink="http://www.w3.org/1999/xlink" x="0px" y="0px"
	 viewBox="0 0 279 94" style="enable-background:new 0 0 279 94;" xml:space="preserve">
<g>
	<path d="M204.7,25.48c-0.29,5.52-2.1,10.3-6.46,13.88c-1.34,1.1-2.8,2.05-4.48,2.59c-0.64,0.21-1.26,0.46-1.89,0.68
		c-0.56,0.2-0.64,0.84-0.09,1.25c1.46,1.1,2.92,2.2,4.43,3.21c1.44,0.96,2.9,1.92,4.44,2.69c1.87,0.94,3.85,1.63,6,1.67
		c0.98,0.02,1.96,0.02,2.74,0.78c0.54,0.52,0.57,1.09-0.09,1.42c-0.59,0.3-1.28,0.63-1.9,0.59c-2.54-0.15-5.1-0.26-7.59-0.73
		c-1.7-0.32-3.33-1.15-4.93-1.87c-3.55-1.58-6.37-4.21-9.36-6.59c-1.07-0.85-2.22-1.45-3.57-1.85c-2-0.58-3.91-1.39-5.67-2.58
		c-2.09-1.4-3.87-3.08-5.25-5.16c-1.35-2.03-2.27-4.23-2.72-6.66c-0.46-2.5-0.36-4.96,0.14-7.41c0.38-1.85,1.06-3.59,2.01-5.25
		c1.1-1.92,2.4-3.65,4.15-5c1.51-1.16,3.07-2.25,4.96-2.8c1.14-0.33,2.22-0.85,3.34-1.24c0.35-0.12,0.76-0.14,1.14-0.15
		c1.45-0.02,2.91-0.05,4.36,0.02c0.55,0.03,1.09,0.32,1.63,0.5c0.17,0.05,0.33,0.13,0.5,0.16c4.4,0.9,7.78,3.4,10.46,6.88
		C203.46,17.76,204.54,21.48,204.7,25.48z M198.91,25.37c0-0.69,0.01-1.17,0-1.64c-0.05-3.22-0.75-6.32-2.52-9
		c-2.22-3.36-5.54-5.05-9.54-5.25c-1.98-0.1-3.9,0.35-5.77,1.12c-1.84,0.75-3.3,1.92-4.45,3.48c-1.88,2.56-2.56,5.58-2.81,8.65
		c-0.34,4.03,0.25,7.96,1.9,11.7c0.81,1.82,2.01,3.3,3.55,4.54c2.15,1.73,4.65,2.32,7.35,2.34c2.4,0.02,4.63-0.56,6.61-1.91
		c2.48-1.69,3.89-4.17,4.73-6.95C198.68,30.07,199.09,27.64,198.91,25.37z"/>
	<path d="M21.85,43.57c-4.39-0.03-8.77-0.06-13.16-0.09c-0.92-0.01-1.84,0.04-2.74-0.06c-0.32-0.04-0.84-0.45-0.84-0.68
		c0.01-0.38,0.29-0.95,0.61-1.08c0.69-0.28,1.48-0.39,2.23-0.47c1.22-0.14,1.73-0.54,1.79-1.77c0.07-1.42,0-2.84,0.01-4.27
		c0.04-6.85,0.1-13.7,0.13-20.55c0-0.92-0.05-1.84-0.14-2.75c-0.12-1.25-0.78-1.81-2.05-1.83c-0.59-0.01-1.19-0.01-1.78-0.03
		C5.4,9.98,4.99,9.72,5.09,9.19c0.07-0.37,0.36-0.79,0.67-0.99c0.29-0.18,0.75-0.18,1.13-0.13C11.43,8.65,15.95,8.29,20.48,8
		c3.36-0.21,6.67,0.16,9.91,1.14c3.2,0.97,5.96,2.62,8.2,5.11c3.19,3.56,4.31,7.77,3.82,12.47c-0.61,5.81-3.22,10.55-7.77,14.16
		c-1.73,1.37-3.75,2.31-6.05,2.47c-2.24,0.16-4.48,0.37-6.73,0.56C21.86,43.8,21.86,43.69,21.85,43.57z M14.75,25.24
		c-0.05,0-0.09,0-0.14,0c0,4.3,0.01,8.6,0,12.89c-0.01,2.45,0.45,2.95,2.87,2.96c2.37,0.01,4.74,0.01,7.11-0.03
		c2.22-0.03,4.4-0.47,6.26-1.66c2.38-1.53,3.83-3.91,4.68-6.55c0.56-1.76,0.87-3.62,1.11-5.45c0.47-3.64-0.16-7.14-1.94-10.36
		c-2.03-3.67-5.32-5.71-9.4-6.18c-3.14-0.36-6.33-0.19-9.5-0.26c-0.79-0.02-1.08,0.29-1.07,1.12
		C14.77,16.23,14.75,20.73,14.75,25.24z"/>
	<path d="M261.02,43.27c-4.38,0.12-7.97,0.23-11.56,0.31c-0.64,0.01-1.31-0.06-1.93-0.23c-0.28-0.08-0.59-0.49-0.63-0.79
		c-0.03-0.23,0.28-0.67,0.53-0.75c0.74-0.25,1.52-0.45,2.3-0.55c1.6-0.2,1.88-0.47,1.89-2.07c0.02-7.62,0.03-15.25,0.05-22.87
		c0-0.92,0.09-1.83,0.14-2.75c0.02-0.41,0.07-0.83,0.03-1.24c-0.15-1.38-0.47-1.65-1.86-1.71c-0.65-0.03-1.31-0.03-1.95-0.14
		c-0.7-0.12-1.21-0.5-1.13-1.33c0.08-0.83,0.75-0.76,1.28-0.76c4.77-0.01,9.55,0.01,14.32,0.02c1.96,0,3.92,0.03,5.87,0
		c0.46-0.01,0.95-0.1,1.38-0.26c0.8-0.31,1.66-0.03,1.76,0.82c0.31,2.53,0.51,5.06,0.73,7.6c0.06,0.65-0.37,1.09-0.93,1.08
		c-0.42-0.01-1.04-0.34-1.2-0.69c-0.4-0.91-0.6-1.91-0.86-2.87c-0.12-0.45-0.17-0.93-0.31-1.38c-0.51-1.59-1.9-1.64-3.18-1.65
		c-2.39-0.01-4.79,0.12-7.18,0.19c-0.33,0.01-0.65,0.06-0.97,0.08c-0.61,0.04-0.87,0.33-0.87,0.97c0,3.44-0.05,6.88-0.03,10.32
		c0,0.24,0.42,0.67,0.66,0.68c2.67,0.08,5.34,0.11,8,0.1c0.92,0,1.44-0.71,1.66-1.86c0.14-0.74,0.28-1.51,0.6-2.18
		c0.15-0.3,0.75-0.49,1.16-0.51c0.17-0.01,0.38,0.54,0.55,0.85c0.06,0.12,0.06,0.29,0.06,0.44c0.03,3.26,0.07,6.52,0.04,9.78
		c0,0.51-0.24,1.31-0.6,1.48c-0.84,0.39-1.2-0.48-1.44-1.06c-0.27-0.67-0.32-1.43-0.44-2.16c-0.18-1.14-0.81-1.8-1.92-1.82
		c-2.46-0.03-4.92,0.01-7.38,0.01c-0.58,0-0.88,0.25-0.88,0.85c-0.02,3.8-0.05,7.59-0.05,11.39c0,0.77,0.71,1.51,1.45,1.68
		c0.12,0.03,0.23,0.05,0.35,0.05c2.93,0.13,5.86,0.41,8.79,0.35c2.2-0.05,3.21-0.17,3.81-2.8c0.17-0.75,0.2-1.53,0.38-2.27
		c0.13-0.53,0.31-1.08,0.62-1.51c0.19-0.27,0.69-0.48,1.01-0.44c0.26,0.04,0.59,0.45,0.68,0.76c0.14,0.5,0.17,1.05,0.15,1.58
		c-0.07,1.75-0.18,3.49-0.28,5.24c-0.11,1.94-0.66,2.42-2.63,2.36C267.46,43.47,263.84,43.36,261.02,43.27z"/>
	<path d="M211.45,22.66c0-3.65,0.01-7.3,0-10.95c0-1.15-0.45-1.6-1.61-1.65c-0.71-0.03-1.43,0.02-2.13-0.08
		c-0.27-0.04-0.7-0.38-0.7-0.58c0.01-0.33,0.22-0.77,0.5-0.96c0.98-0.69,2.13-0.65,3.26-0.49c2.78,0.39,5.54,0.55,8.32-0.02
		c0.77-0.16,1.57-0.24,2.23,0.48c0.56,0.62,0.44,1.34-0.39,1.53c-0.57,0.13-1.18,0.11-1.77,0.12c-1.85,0.03-2.49,0.62-2.5,2.43
		c-0.04,6.67-0.05,13.35-0.1,20.02c-0.01,1.51,0.07,3.05,0.88,4.29c0.7,1.07,1.7,2.06,2.78,2.75c3.33,2.12,7.08,1.99,10.75,1.44
		c2.44-0.37,4.69-1.5,6.17-3.64c0.49-0.7,0.91-1.6,0.94-2.43c0.13-3.94,0.12-7.88,0.14-11.83c0.02-3.32,0.03-6.65,0.01-9.97
		c-0.02-2.54-0.24-2.74-2.74-3.02c-0.32-0.04-0.65-0.08-0.97-0.1c-0.58-0.02-1.09-0.27-0.95-0.88c0.1-0.43,0.5-0.88,0.89-1.13
		c0.26-0.17,0.75-0.06,1.12,0.01c2.32,0.48,4.63,0.55,6.96-0.01c1.11-0.27,2.31-0.48,3.31,0.38c0.25,0.22,0.47,0.63,0.45,0.93
		c-0.02,0.24-0.38,0.58-0.66,0.67c-0.52,0.16-1.1,0.27-1.64,0.24c-1.96-0.13-2.84,0.6-2.83,2.59c0.01,4.12,0.11,8.25,0.11,12.37
		c0,3.35-0.02,6.7-0.2,10.04c-0.14,2.56-1.55,4.47-3.68,5.83c-4.54,2.91-9.62,3.38-14.78,2.79c-3.04-0.35-5.98-1.33-8.39-3.44
		c-1-0.87-1.73-1.95-1.99-3.16c-0.42-1.93-0.66-3.91-0.74-5.89c-0.12-2.9-0.03-5.81-0.03-8.72
		C211.47,22.66,211.46,22.66,211.45,22.66z"/>
	<path d="M75.75,8.44c1.72,0,3.44,0.03,5.16-0.01c2.44-0.05,4.78,0.42,6.9,1.6c1.52,0.85,2.78,2.1,3.5,3.75
		c0.35,0.8,0.6,1.65,0.86,2.48c1.04,3.35-1.27,7.61-4.02,9.3c-2.97,1.83-6.21,2.29-9.6,2.19c-1.97-0.06-2-0.05-2.02,1.89
		c-0.03,3.2-0.04,6.4-0.03,9.61c0,1.56,0.45,2.01,1.98,2.12c0.85,0.06,1.73,0.05,2.55,0.26c0.42,0.11,0.74,0.64,1.1,0.99
		c-0.35,0.36-0.64,0.81-1.06,1.04c-0.32,0.18-0.82,0.16-1.21,0.09c-3.48-0.63-6.96-0.51-10.46-0.23c-0.64,0.05-1.31,0.01-1.93-0.12
		c-0.29-0.06-0.7-0.45-0.71-0.7c-0.01-0.31,0.28-0.82,0.55-0.91c0.74-0.26,1.53-0.42,2.31-0.49c1.66-0.15,1.76-0.18,1.79-1.83
		c0.05-2.22,0.05-4.45,0.07-6.67c0.05-6.31,0.1-12.63,0.13-18.94c0-0.71-0.04-1.43-0.14-2.13c-0.2-1.32-0.73-1.7-2.05-1.67
		c-0.56,0.01-1.15,0.05-1.67-0.1c-0.31-0.09-0.66-0.49-0.74-0.81c-0.04-0.18,0.4-0.6,0.69-0.71c0.4-0.15,0.87-0.12,1.31-0.12
		c2.25-0.01,4.51,0,6.76,0C75.75,8.35,75.75,8.4,75.75,8.44z M76.51,18.15c-0.01,0-0.02,0-0.03,0c0,2.02,0,4.03,0,6.05
		c0,0.58,0.01,1.21,0.81,1.23c1.96,0.04,3.92,0.37,5.86-0.49c2.02-0.9,3.09-2.44,3.72-4.43c0.7-2.22,0.33-4.32-0.86-6.29
		c-0.74-1.21-1.72-2.29-3.07-2.66c-1.61-0.44-3.31-0.59-4.99-0.75c-1.14-0.11-1.42,0.22-1.43,1.38
		C76.5,14.18,76.51,16.17,76.51,18.15z"/>
	<path d="M151.08,24.68c0.54-0.76,1.12-1.53,1.64-2.34c1.96-3.04,3.9-6.09,5.84-9.15c0.27-0.42,0.51-0.86,0.74-1.31
		c0.41-0.81-0.15-1.69-1.17-1.83c-0.41-0.06-0.89,0.07-1.23-0.1c-0.38-0.19-0.68-0.59-0.92-0.96c-0.04-0.06,0.38-0.54,0.66-0.64
		c0.52-0.19,1.08-0.32,1.63-0.34c2.42-0.09,4.85-0.15,7.27-0.17c0.47,0,1.04,0.08,1.38,0.35c0.32,0.26,0.55,0.84,0.51,1.24
		c-0.02,0.23-0.65,0.47-1.04,0.58c-0.59,0.17-1.23,0.18-1.82,0.34c-0.96,0.25-1.49,1.03-1.98,1.81c-1.96,3.14-3.89,6.3-5.84,9.45
		c-1.2,1.92-2.58,3.75-3.57,5.77c-0.54,1.11-0.61,2.53-0.62,3.81c-0.03,2.73,0.13,5.45,0.19,8.18c0.03,1.28,0.42,1.69,1.71,1.74
		c0.74,0.03,1.48,0,2.22,0.02c0.97,0.03,1.78,0.69,1.75,1.4c-0.02,0.68-0.89,1.41-1.79,1.42c-0.74,0-1.49-0.02-2.21-0.14
		c-2.86-0.49-5.71-0.48-8.59-0.13c-0.97,0.12-2.01-0.05-2.96-0.3c-0.42-0.11-1.01-0.81-0.96-1.17c0.06-0.44,0.64-1,1.11-1.14
		c0.77-0.23,1.66-0.31,2.45-0.19c1.22,0.19,1.62-0.42,1.98-1.52c0.09-0.28,0.1-0.59,0.1-0.88c0-2.79,0.02-5.58-0.04-8.36
		c-0.03-1.65-0.87-3.03-1.75-4.38c-1.39-2.15-2.79-4.29-4.18-6.44c-1.09-1.68-2.19-3.35-3.28-5.03c-0.54-0.84-1.12-1.66-1.6-2.54
		c-0.59-1.08-1.6-1.44-2.66-1.72c-0.67-0.17-1.26-0.42-1.18-1.18c0.08-0.7,0.66-1.07,1.35-1.04c1.21,0.06,2.41,0.24,3.62,0.29
		c1.05,0.05,2.11,0.02,3.17-0.03c1.39-0.07,2.77-0.2,4.16-0.28c0.79-0.04,1.16,0.49,1.17,1.17c0.01,0.68-0.42,1.01-1.16,1.05
		c-0.72,0.04-1.48,0.14-2.14,0.4c-0.73,0.29-0.79,0.85-0.35,1.52c1.61,2.43,3.22,4.86,4.8,7.31c1.13,1.76,2.21,3.54,3.32,5.32
		C150.83,24.58,150.91,24.59,151.08,24.68z"/>
	<path d="M116.47,25.64c0,4.51-0.01,9.02,0.01,13.53c0.01,1.76,0.4,2.13,2.19,2.31c0.85,0.08,1.72,0.12,2.55,0.33
		c0.35,0.09,0.74,0.49,0.86,0.84c0.07,0.19-0.31,0.69-0.59,0.82c-0.46,0.21-1.03,0.38-1.51,0.3c-3.75-0.57-7.51-0.45-11.27-0.14
		c-0.66,0.06-1.37-0.05-2.01-0.23c-0.28-0.07-0.64-0.51-0.63-0.77c0-0.32,0.29-0.78,0.57-0.92c0.4-0.2,0.91-0.2,1.38-0.22
		c0.41-0.02,0.83,0.13,1.24,0.08c1.27-0.14,2.07-0.44,2.24-1.8c0.09-0.7,0.21-1.41,0.2-2.12c-0.08-8.31-0.17-16.61-0.29-24.91
		c-0.03-1.95-0.07-1.95-1.98-1.99c-1.99-0.05-3.97-0.12-5.96-0.17c-2.23-0.06-2.76,0.35-3.26,2.91c-0.22,1.12-0.38,2.26-0.66,3.37
		c-0.07,0.29-0.5,0.68-0.77,0.69c-0.33,0.01-0.77-0.27-0.99-0.55c-0.71-0.91-0.46-1.97-0.34-3c0.16-1.35,0.31-2.71,0.56-4.05
		c0.12-0.65,0.37-1.32,0.73-1.87c0.15-0.24,0.72-0.29,1.1-0.29c0.97,0.02,1.94,0.17,2.92,0.19c6.73,0.13,13.46,0.22,20.19,0.37
		c1.53,0.03,3-0.13,4.46-0.55c0.39-0.11,0.82-0.11,1.24-0.13c0.71-0.03,1.23,0.24,1.3,1.02c0.23,2.59,0.45,5.18,0.65,7.78
		c0.05,0.69-0.4,1.08-1.03,1.08c-0.64,0-1.1-0.34-1.21-1.06c-0.19-1.25-0.39-2.51-0.68-3.75c-0.28-1.18-1.39-2.01-2.61-2.02
		c-2.61-0.01-5.22,0.03-7.83,0.02c-0.79,0-0.74,0.5-0.74,1.02c0,4.63,0,9.26,0,13.88C116.48,25.64,116.48,25.64,116.47,25.64z"/>
	<path d="M55.91,25.99c0,4.27,0,8.53,0.01,12.8c0,0.38,0.04,0.77,0.13,1.14c0.3,1.21,0.65,1.45,1.92,1.54
		c0.77,0.05,1.54,0.1,2.28,0.28c0.29,0.07,0.66,0.46,0.69,0.74c0.03,0.29-0.23,0.77-0.49,0.89c-0.54,0.25-1.17,0.45-1.75,0.43
		c-3.22-0.1-6.44-0.28-9.67-0.42c-0.56-0.02-1.14,0.1-1.68-0.02c-0.31-0.07-0.74-0.47-0.75-0.73c0-0.27,0.4-0.7,0.7-0.79
		c0.79-0.23,1.63-0.29,2.44-0.47c1.34-0.31,1.51-0.49,1.55-1.85c0.05-1.48,0.01-2.96,0.01-4.45c0.03-6.94,0.04-13.87,0.12-20.81
		c0.03-2.91-0.02-3.1-2.78-3.96c-0.48-0.15-1.01-0.17-1.46-0.36c-0.31-0.13-0.66-0.43-0.74-0.73C46.39,9,46.67,8.59,46.91,8.41
		c0.82-0.61,1.78-0.64,2.73-0.39c2.29,0.61,4.58,0.44,6.89,0.15c0.97-0.12,1.94-0.3,2.91-0.29c0.47,0,1.03,0.29,1.38,0.62
		c0.56,0.55,0.23,1.4-0.56,1.52c-0.67,0.1-1.36,0.09-2.04,0.11c-1.19,0.03-1.75,0.42-2.01,1.57c-0.14,0.63-0.22,1.29-0.23,1.93
		c-0.02,4.12-0.01,8.24-0.01,12.36C55.94,25.99,55.93,25.99,55.91,25.99z"/>
	<path d="M140.16,87.73c-0.92,0-1.84-0.02-2.76,0.01c-0.66,0.01-1.09-0.32-1.05-0.92c0.02-0.24,0.6-0.56,0.96-0.62
		c0.97-0.18,1.28-0.45,1.28-1.46c0.01-4,0.02-8.01,0.03-12.01c0-1.11-0.16-1.35-1.27-1.51c-0.56-0.08-1.06-0.27-1.02-0.87
		c0.04-0.62,0.49-0.99,1.17-0.95c0.21,0.01,0.43-0.03,0.62,0.02c1.78,0.5,3.59,0.12,5.39,0.18c1.23,0.04,2.5,0.14,3.67,0.5
		c1.36,0.42,2.43,1.35,2.73,2.87c0.42,2.19,0.09,4.14-1.91,5.49c-0.67,0.45-0.76,0.98-0.33,1.65c1.02,1.58,1.96,3.23,3.1,4.72
		c0.48,0.63,1.41,0.89,2.1,1.38c0.29,0.2,0.62,0.52,0.68,0.83c0.09,0.52-0.3,0.76-0.83,0.81c-1.84,0.15-3.59-0.03-4.78-1.65
		c-0.68-0.92-1.19-1.96-1.77-2.95c-0.57-0.96-1.11-1.94-1.71-2.88c-0.35-0.56-1.95-0.88-2.45-0.5c-0.2,0.15-0.32,0.51-0.33,0.77
		c-0.04,1.48-0.05,2.96-0.04,4.45c0.01,0.83,0.59,1.08,1.31,1.16c0.47,0.05,1.15-0.08,1.1,0.68c-0.04,0.71-0.59,0.86-1.23,0.84
		c-0.89-0.02-1.78-0.01-2.67-0.01C140.16,87.75,140.16,87.74,140.16,87.73z M141.64,74.8c-0.01,0-0.01,0-0.02,0
		c0,0.47-0.01,0.95,0,1.42c0.03,2.03-0.45,1.94,1.99,2.01c1.36,0.03,2.45-0.34,2.98-1.58c0.31-0.72,0.33-1.61,0.3-2.41
		c-0.08-1.75-1.15-2.74-2.89-2.83c-0.5-0.02-1.01,0.01-1.51-0.03c-0.64-0.05-0.85,0.27-0.85,0.84
		C141.64,73.08,141.64,73.94,141.64,74.8z"/>
	<path d="M124.39,80.65c-1.13,0.12-2.32-0.36-3.04,0.63c-0.51,0.69-0.76,1.58-1.11,2.38c-0.12,0.27-0.17,0.58-0.32,0.82
		c-0.6,1-0.61,1.01,0.42,1.44c0.08,0.03,0.17,0.06,0.24,0.11c0.31,0.24,0.61,0.49,0.91,0.73c-0.42,0.29-0.82,0.76-1.27,0.82
		c-1.08,0.15-2.19,0.17-3.27,0.11c-0.41-0.02-0.98-0.33-1.16-0.68c-0.33-0.61,0.39-0.67,0.72-0.97c0.49-0.44,0.98-0.96,1.25-1.55
		c0.89-1.98,1.68-4.01,2.52-6.02c0.63-1.52,1.29-3.03,1.92-4.55c0.33-0.79,0.62-1.59,0.95-2.38c0.27-0.65,0.52-1.33,0.91-1.9
		c0.16-0.24,0.69-0.42,0.99-0.35c0.34,0.07,0.78,0.38,0.91,0.7c0.87,2.22,1.65,4.48,2.52,6.7c0.86,2.19,1.78,4.36,2.68,6.53
		c0.25,0.6,0.54,1.18,0.75,1.79c0.26,0.77,0.85,1.07,1.56,1.3c0.29,0.1,0.49,0.44,0.73,0.67c-0.28,0.25-0.56,0.71-0.85,0.72
		c-1.89,0.06-3.79,0.04-5.68-0.02c-0.3-0.01-0.63-0.28-0.87-0.51c-0.37-0.38-0.24-0.7,0.26-0.85c0.25-0.07,0.53-0.08,0.79-0.12
		c0.62-0.1,0.94-0.48,0.71-1.06c-0.55-1.39-1.14-2.77-1.77-4.12c-0.09-0.19-0.47-0.32-0.73-0.35
		C125.44,80.62,124.85,80.65,124.39,80.65z M124.34,74.45c-0.1-0.02-0.2-0.04-0.29-0.06c-0.57,1.33-1.15,2.65-1.68,4
		c-0.04,0.1,0.32,0.52,0.51,0.53c0.86,0.04,1.72,0.01,2.57-0.04c0.46-0.03,0.62-0.26,0.36-0.72c-0.2-0.35-0.32-0.75-0.47-1.13
		C125,76.18,124.67,75.32,124.34,74.45z"/>
	<path d="M106.69,82.68c0,0.8-0.04,1.6,0.01,2.4c0.04,0.75,0.4,1.19,1.25,1.15c0.52-0.03,1.3-0.16,1.3,0.66
		c0.01,0.81-0.67,0.89-1.36,0.88c-1.77-0.02-3.54-0.02-5.31,0.02c-0.63,0.01-1.07-0.17-1.15-0.82c-0.08-0.68,0.48-0.7,0.95-0.79
		c1.03-0.19,1.37-0.56,1.37-1.62c0-4.06-0.01-8.13-0.02-12.19c0-1.02-0.29-1.25-1.29-1.45c-0.32-0.06-0.59-0.41-0.88-0.62
		c0.32-0.24,0.63-0.67,0.96-0.69c2.85-0.17,5.71-0.19,8.49,0.51c2.05,0.52,3.49,1.71,3.48,4.29c-0.01,2.24-0.99,3.75-3.06,4.73
		c-1.21,0.57-2.4,0.6-3.63,0.56c-0.77-0.02-1.1,0.26-1.07,1.02c0.02,0.65,0,1.3,0,1.96C106.72,82.68,106.7,82.68,106.69,82.68z
		 M106.69,74.79c0,0-0.01,0-0.01,0c0,0.86-0.04,1.72,0.02,2.57c0.02,0.29,0.26,0.75,0.47,0.8c1.79,0.41,3.76-0.65,4.16-2.39
		c0.63-2.76-1.39-4.44-3.9-4.35c-0.52,0.02-0.74,0.29-0.74,0.79C106.69,73.08,106.69,73.94,106.69,74.79z"/>
	<path d="M174.29,88.07c-1.41-0.29-2.82-0.59-4.23-0.88c-0.61-0.12-0.9-0.44-0.91-1.1c-0.02-1.09-0.15-2.18-0.15-3.27
		c0-0.3,0.3-0.59,0.46-0.89c0.27,0.2,0.64,0.35,0.8,0.62c0.35,0.64,0.63,1.32,0.89,2.01c0.4,1.05,1.39,1.42,2.28,1.65
		c1.44,0.38,2.88,0.19,4.13-0.78c1.07-0.84,1.19-3.22,0.06-4.05c-0.96-0.7-2.08-1.2-3.15-1.72c-1.41-0.69-3.03-0.97-4.05-2.37
		c-1.63-2.24-1.1-4.79,0.66-6.48c1.09-1.04,2.5-1.41,3.99-1.41c1.22,0,2.43,0.01,3.65,0.02c0.75,0.01,1.29,0.48,1.36,1.23
		c0.08,0.92,0.13,1.83,0.17,2.75c0.02,0.43,0.1,0.93-0.54,1.04c-0.58,0.09-0.88-0.17-1.02-0.72c-0.11-0.43-0.28-0.84-0.41-1.27
		c-0.31-0.99-0.94-1.53-1.96-1.62c-1.46-0.13-2.73,0.19-3.67,1.46c-1.01,1.37-0.67,2.79,0.62,3.58c1.09,0.66,2.34,1.09,3.55,1.54
		c2.46,0.92,4.77,2.9,4.33,6.09c-0.23,1.71-1.21,2.81-2.65,3.63C177.16,87.87,175.76,87.92,174.29,88.07z"/>
	<path d="M159.79,78.67c0-1.9-0.02-3.79,0.01-5.69c0.02-1.2-0.21-1.5-1.47-1.95c-0.38-0.14-0.67-0.51-1.01-0.77
		c0.43-0.26,0.85-0.7,1.3-0.74c1.52-0.13,3.06-0.14,4.58-0.13c0.46,0.01,1.02,0.14,1.36,0.43c0.57,0.48,0.36,1.02-0.38,1.18
		c-1.55,0.33-1.56,0.33-1.56,1.88c-0.01,3.94-0.01,7.89-0.01,11.83c0,1.13,0.32,1.42,1.46,1.56c0.29,0.04,0.55,0.32,0.83,0.5
		c-0.25,0.32-0.44,0.79-0.77,0.93c-0.37,0.16-0.87,0.03-1.32,0.03c-1.27,0-2.54,0-3.82,0c-0.21,0-0.47,0.09-0.61,0
		c-0.38-0.25-0.72-0.59-1.07-0.89c0.33-0.27,0.62-0.71,0.99-0.79c1.26-0.27,1.31-0.23,1.33-1.51c0.03-1.96,0.01-3.91,0.01-5.87
		C159.69,78.67,159.74,78.67,159.79,78.67z"/>
</g>
</svg>
