<?xml version="1.0" encoding="utf-8"?>
<!-- Generator: Adobe Illustrator 23.1.0, SVG Export Plug-In . SVG Version: 6.00 Build 0)  -->
<svg version="1.1" id="Layer_1" xmlns="http://www.w3.org/2000/svg" xmlns:xlink="http://www.w3.org/1999/xlink" x="0px" y="0px"
	 viewBox="0 0 229.1 238.7" style="enable-background:new 0 0 229.1 238.7;" xml:space="preserve">
<style type="text/css">
	.st0{fill:#FFFFFF;}
</style>
<g>
	<rect id="흰색바탕" x="38.4" y="24.8" class="st0" width="156.9" height="185.5"/>
	<g>
		<path d="M80.2,182.4c13.2,1.6,26.5,1.6,39-2.9c29.5-10.5,46.6-40.8,40.8-71.1c-3.7-19.6-14.6-34.3-31.9-43.5
			c-16-8.5-33.3-12.1-52-7.8c-0.1,1.2-0.2,2.5-0.2,3.7c0.3,23.3,0.8,46.5,1.1,69.8c0.2,15.8,0.3,31.5,0.4,47.3
			C77.4,179.9,77.1,182,80.2,182.4z"/>
		<path d="M57,70c0-4.7,0-10.2-5.5-12.7c-4.2-1.9-8.5-3.3-13.4-5.2c0,45.4,0,90,0,134.9c14.2-1,19-6.4,19-15C57,138,57.2,104,57,70z
			"/>
		<path d="M187.6,22.4c-46-0.1-92.1-0.3-138.1-0.5c-10.9,0-21.7-0.1-32.6,0c-1.1,0-2.2,0.9-3.3,1.3c0.9,1.2,1.6,2.5,2.6,3.5
			c0.6,0.5,1.6,0.6,2.4,0.8c8.8,2.5,15.8,6.9,18.6,16.3c0.3,1.1,2.6,2.2,4,2.2c11.1-0.1,22.3,0.2,33.4-0.8
			c19.8-1.8,39.2,0.1,57.7,6.5c28.4,9.9,49,32.9,50.9,66.3c0.2,3,0.7,6.1,0.3,9c-1.9,15.7-7.6,29.9-17.2,42.4
			c-2.6,3.4-5.9,6.4-9.4,8.8c-14.7,10.3-31.5,13.3-48.9,13.4c-21.4,0.2-42.8,0.2-64.3,0.3c-5.6,0-5.6,0.1-5.6,5.8c0,4.9,0,14.1,0,19
			h140.4v0h2.6h11.8h4.3V22.4h0c0,0,0,0,0,0L187.6,22.4z"/>
		<line x1="197.4" y1="22.4" x2="196.2" y2="24"/>
	</g>
</g>
</svg>
