<?xml version="1.0" encoding="utf-8"?>
<!-- Generator: Adobe Illustrator 23.1.0, SVG Export Plug-In . SVG Version: 6.00 Build 0)  -->
<svg version="1.1" id="Layer_1" xmlns="http://www.w3.org/2000/svg" xmlns:xlink="http://www.w3.org/1999/xlink" x="0px" y="0px"
	 viewBox="0 0 640 640" style="enable-background:new 0 0 640 640;" xml:space="preserve">
<style type="text/css">
	.st0{fill:#CACACA;}
</style>
<path class="st0" d="M480,272c0,45.9-14.9,88.3-40,122.7l126.6,126.7c12.5,12.5,12.5,32.8,0,45.3s-32.8,12.5-45.3,0L394.7,440
	c-34.4,25.1-76.8,40-122.7,40c-114.9,0-208-93.1-208-208S157.1,64,272,64S480,157.1,480,272z M272,416c79.5,0,144-64.5,144-144
	s-64.5-144-144-144s-144,64.5-144,144S192.5,416,272,416z"/>
</svg>
