<?xml version="1.0" encoding="utf-8"?>
<!-- Generator: Adobe Illustrator 23.1.0, SVG Export Plug-In . SVG Version: 6.00 Build 0)  -->
<svg version="1.1" id="Layer_1" xmlns="http://www.w3.org/2000/svg" xmlns:xlink="http://www.w3.org/1999/xlink" x="0px" y="0px"
	 viewBox="0 0 138 147" style="enable-background:new 0 0 138 147;" xml:space="preserve">
<style type="text/css">
	.st0{fill:#5B5B5B;}
</style>
<g>
	<path class="st0" d="M49.6,57.9c9-5.3,18-10.3,26.7-15.8c1.2-0.7,1.9-3.2,1.8-4.8c-0.4-12.1,5.8-21,16.5-23.5
		c9.1-2.1,16.6,0.8,22,8c5.5,7.3,5.9,15.4,1.4,23.4c-4.4,8-11.6,11.4-20.4,10.5c-3.6-0.4-7.4-1.9-10.6-3.8c-2.5-1.6-4.2-1.9-6.6-0.3
		c-7.2,4.4-14.6,8.7-22,12.8c-2.6,1.5-3.1,3.2-3.6,6.2c-1.3,7.7,2.7,10.9,8.7,13.8c5.7,2.7,11,6.2,16.4,9.5c2.7,1.7,4.6,1.7,7.5-0.3
		c7.7-5.4,16-5.4,23.9-0.4c7.8,5,10.6,12.6,9.4,21.6c-1.1,8.1-7.7,15.1-16.1,17.2c-14,3.5-27-7.5-26.3-22.5c0.2-3.6-0.6-5.6-3.9-7.3
		c-6.9-3.6-13.6-7.7-20.3-11.8c-2.9-1.8-5-2.2-8.3,0.1C35.3,98,21.1,94.3,15,83c-5.9-11-1.3-24.9,10.3-29.7
		C34.1,49.6,42.3,51.5,49.6,57.9z M99.4,45.9c6.2,0,11.5-5.2,11.5-11.3c0-6.1-5.3-11.2-11.6-11.2c-6.4,0-11.4,5.2-11.3,11.5
		C88.3,40.8,93.5,45.9,99.4,45.9z M99.6,99.7c-5.9-0.1-11.5,5.4-11.5,11.5c0,5.8,5.1,11.1,11.1,11.3c6,0.2,11.7-5.1,11.8-11.2
		C111.1,105.4,105.7,99.9,99.6,99.7z M45.2,73c0-6.2-5.2-11.5-11.4-11.4c-6.1,0.1-11,5-11,11.3c0,6.3,4.7,11.1,10.8,11.3
		C40.1,84.2,45.2,79.3,45.2,73z"/>
</g>
</svg>
