<?xml version="1.0" encoding="utf-8"?>
<!-- Generator: Adobe Illustrator 23.1.0, SVG Export Plug-In . SVG Version: 6.00 Build 0)  -->
<svg version="1.1" id="Layer_1" xmlns="http://www.w3.org/2000/svg" xmlns:xlink="http://www.w3.org/1999/xlink" x="0px" y="0px"
	 viewBox="0 0 170 165" style="enable-background:new 0 0 170 165;" xml:space="preserve">
<style type="text/css">
	.st0{fill:#525252;}
	.st1{display:none;}
	.st2{display:inline;fill:#525252;}
</style>
<g>
	<path class="st0" d="M-277.8,96.8c9.3,0,18.6,0,28,0c19.3,0.1,34.4,15.3,34.7,34.5c0.1,4.5,0,9,0,13.5c0,4.4-2.2,7.2-6.4,7.5
		c-4.3,0.3-6.7-2.7-7-6.9c-0.3-4.5-0.1-9-0.1-13.5c-0.1-12.8-8.8-21.5-21.7-21.6c-18.6-0.1-37.3-0.1-55.9,0
		c-12,0.1-20.7,8.7-21.1,20.7c-0.2,4.5,0.1,9-0.1,13.5c-0.2,5-3.2,8.1-7.1,7.9c-3.7-0.2-6.3-3.4-6.2-8.1c0.2-7-0.3-14.1,1.1-20.8
		c3.4-16,17.2-26.5,33.5-26.6C-296.7,96.8-287.3,96.8-277.8,96.8z"/>
	<path class="st0" d="M-312.8,47.1c0.1-19.2,15.4-34.5,34.5-34.6c19.6-0.1,35.3,15.6,35.1,35.1c-0.1,18.9-15.8,34.3-34.9,34.4
		C-297.3,82.1-312.9,66.4-312.8,47.1z M-299.3,47.2c0,12.1,9.6,21.7,21.5,21.6c11.7-0.1,21-9.7,21-21.5c0-11.9-9.8-21.7-21.5-21.6
		C-289.9,25.8-299.3,35.4-299.3,47.2z"/>
</g>
<g class="st1">
	<path class="st2" d="M-98.9,27.6c6.9-7.8,15-12.7,24.6-14.9c18-4.1,38.1,4.8,47.3,21.2c9.8,17.6,8.1,39.4-5.1,53.3
		c-20.3,21.4-41,42.3-61.7,63.3c-3.8,3.9-7.2,3.6-11.3-0.6c-19.7-20.1-39.4-40.2-59-60.4c-17.4-18-17.8-46.1-0.9-63.8
		c17.1-18,44.5-18.6,62.7-1.3C-101.3,25.3-100.3,26.2-98.9,27.6z M-99.6,137c1-0.7,1.6-1.1,2-1.5c18.5-18.9,37.2-37.7,55.4-56.9
		c11.8-12.5,10.8-32.4-1.4-44.5c-12-11.9-30.8-12-43.1,0c-2.2,2.2-4.3,4.5-6.6,6.7c-4.4,4.3-7.4,4.3-11.7,0.1
		c-2.3-2.3-4.5-4.8-6.9-7c-7.1-6.6-15.5-9.8-25-8.4c-12.8,2-21.7,9.3-25.8,22c-4.1,12.8-0.6,23.9,8.5,33.3
		c13.5,13.9,27.1,27.8,40.7,41.7C-108.8,127.2-104.2,132.2-99.6,137z"/>
</g>
<g>
	<path class="st0" d="M102.8,121c-10.7,0-21.4,0-32,0c-12.9-0.1-20.5-6.5-23-19C42.5,75,37,48.2,31.7,21.2c-0.9-4.5-2.3-6.7-7.4-6.2
		c-5.3,0.5-10.7,0.2-16,0.1C4.1,15.1,0.9,12.3,1,8.7C1.2,4.6,3.6,2.1,7.7,2c9.5-0.2,19-0.1,28.5,0c3.6,0.1,5.7,2.3,6.4,5.9
		c1.6,8,3.6,15.9,4.8,24c0.6,4.7,2.7,5.5,6.9,5.5c35-0.1,70.1-0.1,105.1-0.1c8.7,0,10.9,2.3,9.3,10.8c-3.4,18.3-6.8,36.6-10.5,54.8
		c-2.4,11.8-10.2,18-22.3,18.1C124.9,121,113.9,121,102.8,121z M154.4,50.6c-34.6,0-68.5,0-102.4,0c-0.2,0.8-0.4,1.3-0.3,1.8
		c3.3,16.4,6.5,32.9,9.9,49.3c0.9,4.2,4.1,5.8,8.2,5.7c22.2,0,44.3,0,66.5,0c5.5,0,7.6-2,8.8-7.5c1.6-8.1,3.3-16.3,4.8-24.4
		C151.4,67.3,152.8,59.2,154.4,50.6z"/>
	<path class="st0" d="M77.7,149.2c0,7.6-6,13.7-13.4,13.9c-7.6,0.1-14.1-6.4-13.9-14c0.1-7.5,6.3-13.6,13.8-13.6
		C71.5,135.5,77.7,141.7,77.7,149.2z"/>
	<path class="st0" d="M127.9,149.2c0-7.5,6.2-13.6,13.6-13.7c7.4,0,13.6,6.2,13.7,13.7c0.1,7.6-6.4,14.1-14,13.9
		C133.8,162.9,127.9,156.7,127.9,149.2z"/>
</g>
</svg>
