<?xml version="1.0" encoding="utf-8"?>
<!-- Generator: Adobe Illustrator 23.1.0, SVG Export Plug-In . SVG Version: 6.00 Build 0)  -->
<svg version="1.1" id="Layer_1" xmlns="http://www.w3.org/2000/svg" xmlns:xlink="http://www.w3.org/1999/xlink" x="0px" y="0px"
	 viewBox="0 0 232 222" style="enable-background:new 0 0 232 222;" xml:space="preserve">
<style type="text/css">
	.st0{fill:#909090;}
	.st1{display:none;}
	.st2{display:inline;}
</style>
<g>
	<g>
		<path class="st0" d="M116.1,216.2c-57.3,0-104.2-46.8-104.2-104C11.9,54.6,58.7,7.5,116.3,7.8C173,8.2,220.2,52.7,220.1,112.1
			C220.1,171.4,172.8,215.8,116.1,216.2z M27.8,111.8c0,48.7,39.5,88.5,88.1,88.5c48.4,0,88.2-38.4,88.5-88.1
			c0.3-48.7-39.8-88.5-88.1-88.6C67.6,23.6,27.8,63.3,27.8,111.8z"/>
		<path class="st0" d="M123.8,94.2c0,18.4,0,36.8,0,55.3c0,5.5-3.1,8.9-7.8,8.9c-4.9,0-8-3.7-8-10c0-16.5,0-32.9,0-49.4
			c0-1.6,0.5-3.3-0.9-5.6c-6.5,6.5-12.7,12.9-18.9,19.2c-1.5,1.5-3,3.1-4.6,4.6c-3.8,3.5-8.4,3.7-11.5,0.4
			c-3.2-3.3-3.2-7.8,0.4-11.5C83.2,95.2,94,84.4,104.9,73.6c11-11,11.4-11,22.5,0c10.5,10.5,20.9,20.9,31.4,31.4
			c4.6,4.6,5,8.9,1.3,12.5c-3.6,3.5-8.2,3.1-12.7-1.4c-7.5-7.5-14.9-15.1-22.4-22.6C124.6,93.8,124.2,94,123.8,94.2z"/>
	</g>
</g>
<g class="st1">
	<g class="st2">
		<path class="st0" d="M17,120.3c0-25,0.6-50-0.2-74.9c-0.6-21.1,15.9-32.8,32.4-32.6C94,13.4,138.8,13,183.6,13
			c19.2,0,31.6,12.3,31.6,31.4c0,32.2,0,64.3,0,96.5c0,17.9-12.7,30.5-30.6,30.5c-36.2,0-72.4,0.1-108.5-0.1c-4.1,0-7.1,1.1-10,4.1
			c-10.3,10.6-20.9,20.9-31.3,31.5c-3.6,3.6-7.5,5.5-12.3,3.5s-5.5-6.2-5.5-10.9C17,173.1,17,146.7,17,120.3z M37.4,177.7
			c6.7-6.9,13.1-13.2,19.2-19.8c3.8-4.1,8.1-5.8,13.8-5.7c37.6,0.2,75.2,0.1,112.8,0.1c9.5,0,12.9-3.5,12.9-13c0-31.2,0-62.4,0-93.6
			c0-10.2-3.3-13.5-13.7-13.5c-44.2,0-88.4,0-132.6,0c-10.6,0-13.6,2.9-13.6,13.4c0,42,0,84,0,126C36.1,173.2,35.6,175.1,37.4,177.7
			z"/>
	</g>
</g>
</svg>
