<?xml version="1.0" encoding="utf-8"?>
<!-- Generator: Adobe Illustrator 23.1.0, SVG Export Plug-In . SVG Version: 6.00 Build 0)  -->
<svg version="1.1" id="Layer_1" xmlns="http://www.w3.org/2000/svg" xmlns:xlink="http://www.w3.org/1999/xlink" x="0px" y="0px"
	 viewBox="0 0 111.7 114" style="enable-background:new 0 0 111.7 114;" xml:space="preserve">
<style type="text/css">
	.st0{display:none;}
	.st1{display:inline;}
	.st2{fill:#020202;}
	.st3{fill:#525252;}
	.st4{display:inline;fill:none;stroke:#020202;stroke-width:6;stroke-miterlimit:10;}
</style>
<g class="st0">
	<g class="st1">
		<path class="st2" d="M82.7,110H29.1C14.6,110,2.9,98.3,2.9,83.8V30.2C2.9,15.8,14.6,4,29.1,4h53.6c14.4,0,26.2,11.8,26.2,26.2
			v53.6C108.9,98.3,97.1,110,82.7,110z M29.1,10C17.9,10,8.9,19.1,8.9,30.2v53.6c0,11.1,9.1,20.2,20.2,20.2h53.6
			c11.1,0,20.2-9.1,20.2-20.2V30.2c0-11.1-9.1-20.2-20.2-20.2H29.1z"/>
	</g>
	<g class="st1">
		<path d="M57.7,87h-10V41c0-8.9,7.2-16.1,16.1-16.1h6.5v10h-6.5c-3.4,0-6.1,2.7-6.1,6.1V87z"/>
	</g>
	<g class="st1">
		<rect x="38.3" y="46.3" width="30" height="11"/>
	</g>
</g>
<g>
	<g>
		<path class="st3" d="M82.7,110H29.1C14.6,110,2.9,98.3,2.9,83.8V30.2C2.9,15.8,14.6,4,29.1,4h53.6c14.4,0,26.2,11.8,26.2,26.2
			v53.6C108.9,98.3,97.1,110,82.7,110z M29.1,10C17.9,10,8.9,19.1,8.9,30.2v53.6c0,11.1,9.1,20.2,20.2,20.2h53.6
			c11.1,0,20.2-9.1,20.2-20.2V30.2c0-11.1-9.1-20.2-20.2-20.2H29.1z"/>
	</g>
	<g>
		<path class="st3" d="M55.9,80.9C42.7,80.9,32,70.2,32,57s10.7-23.9,23.9-23.9S79.8,43.8,79.8,57S69.1,80.9,55.9,80.9z M55.9,39.1
			C46,39.1,38,47.1,38,57s8,17.9,17.9,17.9s17.9-8,17.9-17.9C73.8,47.1,65.7,39.1,55.9,39.1z"/>
	</g>
	<g>
		<path class="st3" d="M80.2,37.9c-3.2,0-5.7-2.6-5.7-5.7s2.6-5.7,5.7-5.7s5.7,2.6,5.7,5.7S83.3,37.9,80.2,37.9z M80.2,31.9
			c-0.2,0-0.3,0.1-0.3,0.3s0.1,0.3,0.3,0.3s0.3-0.1,0.3-0.3S80.4,31.9,80.2,31.9z"/>
	</g>
</g>
<g class="st0">
	<path class="st4" d="M82.7,107H29.1C16.3,107,5.9,96.6,5.9,83.8V30.2C5.9,17.4,16.3,7,29.1,7h53.6c12.8,0,23.2,10.4,23.2,23.2v53.6
		C105.9,96.6,95.5,107,82.7,107z"/>
	<path class="st4" d="M71.9,52L51.6,40.3c-3.9-2.2-8.7,0.6-8.7,5v23.5c0,4.5,4.8,7.3,8.7,5L71.9,62C75.8,59.8,75.8,54.2,71.9,52z"/>
</g>
</svg>
